<svg id="Laag_1" data-name="Laag 1" xmlns="http://www.w3.org/2000/svg" viewBox="0 0 62.37 26.19">
    <defs>
        <style>
            .cls-1{fill:none;}.cls-2{fill:#fff;}.cls-3{clip-path:url(#clip-path);}.cls-4{clip-path:url(#clip-path-2);}.cls-5{clip-path:url(#clip-path-3);}
        </style>
        <clipPath id="clip-path" transform="translate(0.06 3.72)">
            <path class="cls-1"
                  d="M34.94,3.51V1.86H39.6v15H34.94V15.19a6,6,0,0,1-4.84,2.28,6.24,6.24,0,0,1-5.35-2.67,8.43,8.43,0,0,1-1.62-5.19,9.73,9.73,0,0,1,1.06-4.45,7.29,7.29,0,0,1,2.45-2.77,7.17,7.17,0,0,1,3.87-1.11,5.22,5.22,0,0,1,2.86.77,8.26,8.26,0,0,1,1.57,1.46M31.57,5.35a3,3,0,0,0-2.63,1.36,4.63,4.63,0,0,0-.83,2.76,4.43,4.43,0,0,0,1.11,3.1,3,3,0,0,0,2.26,1,3.06,3.06,0,0,0,2.58-1.36A4.62,4.62,0,0,0,35,9.42a4.28,4.28,0,0,0-1.19-3.15,2.86,2.86,0,0,0-2.22-.92"/>
        </clipPath>
        <clipPath id="clip-path-2" transform="translate(0.06 3.72)">
            <rect class="cls-1" x="-877.19" y="-1154.18" width="1024" height="1372"/>
        </clipPath>
        <clipPath id="clip-path-3" transform="translate(0.06 3.72)">
            <polygon class="cls-1"
                     points="49.74 13.39 47.71 16.84 42.23 16.84 47.07 9.42 41.86 1.86 47.71 1.86 49.74 5.11 51.63 1.86 57.3 1.86 52.37 9.42 57.3 16.84 51.63 16.84 49.74 13.39"/>
        </clipPath>
    </defs>
    <title>logo-max</title>
    <path class="cls-2"
          d="M-.06,1.86H4.59V3.65A4.31,4.31,0,0,1,5.84,2.1a4.4,4.4,0,0,1,2.63-.82A4.63,4.63,0,0,1,11,2a4,4,0,0,1,1.39,1.64A4.27,4.27,0,0,1,13.91,2a4.64,4.64,0,0,1,2.63-.73A4.47,4.47,0,0,1,19.9,2.59,4,4,0,0,1,21,4.67,11.91,11.91,0,0,1,21.15,7v9.88H16.49V7.82a3.41,3.41,0,0,0-.32-1.6,1.55,1.55,0,0,0-1.48-.87,1.55,1.55,0,0,0-1.38.73,3.09,3.09,0,0,0-.42,1.69v9H8.24V8a3.41,3.41,0,0,0-.42-1.84A1.61,1.61,0,0,0,6.39,5.3,1.55,1.55,0,0,0,5,6a3.84,3.84,0,0,0-.37,1.89v8.87H-.06Z"
          transform="translate(0.06 3.72)"/>
    <g class="cls-3">
        <g class="cls-4">
            <rect class="cls-2" x="18.2" width="26.46" height="26.19"/>
        </g>
    </g>
    <g class="cls-5">
        <g class="cls-4">
            <rect class="cls-2" x="36.92" y="0.58" width="25.45" height="24.98"/>
        </g>
    </g>
</svg>
