<svg id="Laag_1" data-name="Laag 1" xmlns="http://www.w3.org/2000/svg" viewBox="0 0 373.35 44.35">
    <defs>
        <style>.cls-1{isolation:isolate;}.cls-2{fill:#363636;}.cls-3{fill:#2ba950;}</style>
    </defs>
    <title>logo</title>
    <g class="cls-1">
        <g class="cls-1">
            <path class="cls-2"
                  d="M10.7,38.85V54.76c0,1.88-.4,3.76-2.74,3.76s-2.73-1.88-2.73-3.76V31.84c0-2,.22-4.05,2.73-4.05s2.74,2.06,2.74,4v.75l4.45-2.91a9,9,0,0,1,4.73-1.83h4a6.92,6.92,0,0,1,5.08,2c2.45,2.11,2.33,4.45,2.45,7.41L32,54.42c.06,1.93-.23,4.1-2.68,4.1-2.22,0-2.68-1.88-2.74-3.71L26,37.94c-.11-3.36-.4-4.67-3.7-4.67H20.5a3.31,3.31,0,0,0-1.71.51Z"
                  transform="translate(-5.23 -14.17)"/>
            <path class="cls-2"
                  d="M53.16,33.27c-1.59,0-3.76-.35-3.76-2.74s1.94-2.74,3.76-2.74h7.53c2.85,0,4.9.29,7.07,2.45s2.39,3.77,2.45,6.5l.57,18.59c.06,1.59-.74,3.19-2.57,3.19a2.79,2.79,0,0,1-2.79-2.74l-3.76,1.94a5,5,0,0,1-3.37.8H53.05c-2.45,0-4.22-.29-6.21-1.94C44.56,54.7,44,52.71,44,49.85V47.46a7.13,7.13,0,0,1,2.67-6.1,9,9,0,0,1,6.39-2H64.79V38.05c0-4.1-.91-4.78-4.84-4.78Zm0,11.51c-1.49,0-3.65.4-3.65,2.4v3.64c0,1.83,2.22,2.23,3.53,2.23h6l6-3.14V48.72c0-3-.86-3.94-3.88-3.94Z"
                  transform="translate(-5.23 -14.17)"/>
            <path class="cls-2"
                  d="M93.75,48.2c0,3.08-.12,4.85,3.65,4.85h2.79c2.22,0,3.25-.17,3.82-2.4a2.8,2.8,0,0,1,2.73-2.22,2.76,2.76,0,0,1,2.8,2.74,8.2,8.2,0,0,1-1.88,4.56c-2,2.39-4.62,2.79-7.53,2.79H97.34a8.92,8.92,0,0,1-7.07-2.74c-2.11-2.33-2-4.67-2-7.64V33.27H86.51c-1.6,0-3.77-.35-3.77-2.74s1.94-2.74,3.77-2.74h1.76V22.21c0-1.88.4-3.77,2.74-3.77s2.74,1.89,2.74,3.77v5.58h9.17c1.83,0,3.77.4,3.77,2.74s-2.17,2.74-3.77,2.74H93.75Z"
                  transform="translate(-5.23 -14.17)"/>
            <path class="cls-2"
                  d="M126.52,38.34h19c2.85,0,3.42,1.2,3.42,3.82V54.93c0,2.68-1.14,3.59-3.7,3.59H124.52c-2.67,0-3.7-1-3.7-3.59V17c0-1.31.46-2.85,2.45-2.85h3.42A2.83,2.83,0,0,1,129.37,17a2.72,2.72,0,0,1-2.85,2.85Zm0,5.7v8.78h16.76V44Z"
                  transform="translate(-5.23 -14.17)"/>
        </g>
        <g class="cls-1">
            <path class="cls-2"
                  d="M178.28,38.34V21.86a2.85,2.85,0,0,1,5.7,0V38.34a2.63,2.63,0,0,1,2.85,2.85A2.63,2.63,0,0,1,184,44V55.67c0,1.82-.8,2.85-2.85,2.85s-2.85-1-2.85-2.85V44H161.52V17a2.85,2.85,0,0,1,5.7,0V38.34Z"
                  transform="translate(-5.23 -14.17)"/>
        </g>
    </g>
    <g class="cls-1">
        <g class="cls-1">
            <path class="cls-3"
                  d="M197.66,40.51c0-3.37.62-5,3.25-7.19L205,30c2.57-2.11,3.88-2.17,7.07-2.17h8.67c1.82,0,3.76.4,3.76,2.74s-2.17,2.74-3.76,2.74h-9.64a5.19,5.19,0,0,0-3.13,1.36l-3.31,2.8c-.85.68-1.48,1.25-1.48,2.33v6.79c0,1.08.63,1.65,1.48,2.34l3.31,2.79a5.14,5.14,0,0,0,3.13,1.37h9.64c1.59,0,3.76.34,3.76,2.73s-1.94,2.74-3.76,2.74H212c-3.19,0-4.5-.06-7.07-2.17l-4-3.36c-2.63-2.17-3.25-3.82-3.25-7.18Z"
                  transform="translate(-5.23 -14.17)"/>
            <path class="cls-3"
                  d="M251.69,33.27a3.31,3.31,0,0,0-1.71.51l-8.09,5.07V54.76c0,1.88-.4,3.76-2.74,3.76s-2.73-1.88-2.73-3.76V20.27c0-1.88.39-3.76,2.73-3.76s2.74,1.88,2.74,3.76V32.53l4.44-2.91a9.41,9.41,0,0,1,4.91-1.83h3.65a7.26,7.26,0,0,1,5.3,2c2.45,2.11,2.33,4.45,2.45,7.41l.57,17.22c.06,1.93-.23,4.1-2.68,4.1-2.22,0-2.68-1.88-2.74-3.71l-.57-16.87c-.11-2.62.06-4.67-3-4.67Z"
                  transform="translate(-5.23 -14.17)"/>
            <path class="cls-3"
                  d="M285.21,58.52c-2.28,0-3.19,0-4.91-1.48L278,55c-2.17-1.94-2.8-3.2-2.8-6.16V38.28c0-2.9.4-4.62,2.68-6.55l1.94-1.66c2.57-2.22,3.82-2.28,6-2.28h5c2.68,0,3.94.29,6,2l2.23,1.77c2.51,2,2.85,4.1,2.85,7.12v4.39c0,3.14-.51,4-3.76,4H280.65v1.82a2.67,2.67,0,0,0,.8,1.6L282.81,52c.74.8,1.83,1,3.65,1h11.75c1.82,0,3.76.4,3.76,2.73s-2.17,2.74-3.76,2.74Zm-4.56-16.87H296.5V38.34c0-1,.05-1.88-.69-2.57L293.7,34a3.87,3.87,0,0,0-2.62-.68h-4.62a4.45,4.45,0,0,0-2.79.62l-1.88,1.37a2.48,2.48,0,0,0-1.14,2.51Z"
                  transform="translate(-5.23 -14.17)"/>
            <path class="cls-3"
                  d="M313.93,40.51c0-3.37.63-5,3.25-7.19L321.23,30c2.57-2.11,3.88-2.17,7.07-2.17H337c1.83,0,3.77.4,3.77,2.74s-2.17,2.74-3.77,2.74h-9.63a5.16,5.16,0,0,0-3.13,1.36l-3.31,2.8c-.86.68-1.48,1.25-1.48,2.33v6.79c0,1.08.62,1.65,1.48,2.34l3.31,2.79a5.12,5.12,0,0,0,3.13,1.37H337c1.6,0,3.77.34,3.77,2.73s-1.94,2.74-3.77,2.74H328.3c-3.19,0-4.5-.06-7.07-2.17L317.18,53c-2.62-2.17-3.25-3.82-3.25-7.18Z"
                  transform="translate(-5.23 -14.17)"/>
        </g>
        <g class="cls-1">
            <path class="cls-3"
                  d="M369.8,30c1-.86,2.34-2.23,3.65-2.23a2.75,2.75,0,0,1,2.73,2.8c0,1.31-.85,1.94-1.82,2.73l-10.6,8.78,12.88,10.72c1,.85,1.94,1.48,1.94,2.91a2.75,2.75,0,0,1-2.74,2.79,4.13,4.13,0,0,1-2.56-1.31L359.54,45.75l-2.28,2v7c0,1.88-.4,3.76-2.74,3.76s-2.73-1.88-2.73-3.76V20.27c0-1.88.39-3.76,2.73-3.76s2.74,1.88,2.74,3.76V40.56Z"
                  transform="translate(-5.23 -14.17)"/>
        </g>
    </g>
</svg>
